<svg id="Layer_1" data-name="Layer 1" xmlns="http://www.w3.org/2000/svg" xmlns:xlink="http://www.w3.org/1999/xlink" viewBox="0 0 662.53 625.56"><defs><style>.cls-1,.cls-11,.cls-12,.cls-13,.cls-2,.cls-6,.cls-7{fill:#fff;}.cls-1,.cls-14,.cls-16,.cls-26,.cls-30,.cls-32,.cls-34,.cls-39,.cls-4,.cls-42,.cls-44,.cls-48,.cls-49,.cls-53,.cls-56,.cls-57,.cls-59,.cls-6,.cls-60,.cls-61,.cls-62,.cls-69,.cls-7,.cls-76,.cls-9{fill-rule:evenodd;}.cls-18,.cls-24,.cls-3,.cls-36,.cls-37,.cls-41,.cls-45,.cls-46,.cls-51,.cls-52,.cls-54,.cls-55,.cls-65,.cls-66,.cls-68,.cls-73,.cls-74,.cls-78,.cls-83{fill:none;}.cls-3{stroke:#4381ff;opacity:0.3;}.cls-11,.cls-12,.cls-13,.cls-16,.cls-26,.cls-3,.cls-30,.cls-34,.cls-37,.cls-46,.cls-48,.cls-52,.cls-55,.cls-59,.cls-6,.cls-61,.cls-66,.cls-67,.cls-7,.cls-74,.cls-75,.cls-9{isolation:isolate;}.cls-4{fill:url(#linear-gradient);}.cls-5{mask:url(#mask);}.cls-6{opacity:0.05;}.cls-7{opacity:0.07;}.cls-8{mask:url(#mask-3-3);}.cls-48,.cls-59,.cls-9{fill:#000b83;}.cls-13,.cls-9{opacity:0.1;}.cls-10{mask:url(#mask-4);}.cls-11,.cls-16{opacity:0.15;}.cls-12,.cls-30,.cls-34{opacity:0.2;}.cls-14,.cls-61,.cls-70{fill:#222d9f;}.cls-15{mask:url(#mask-10);}.cls-17{mask:url(#mask-11);}.cls-18,.cls-83{stroke:#6d8de7;}.cls-18{stroke-width:0.76px;}.cls-19{mask:url(#mask-12);}.cls-20{mask:url(#mask-13);}.cls-21{mask:url(#mask-14);}.cls-22{mask:url(#mask-15);}.cls-23{mask:url(#mask-16);}.cls-24{stroke:#0e1665;}.cls-24,.cls-68{stroke-linecap:round;stroke-linejoin:round;}.cls-25{mask:url(#mask-17);}.cls-26{fill:#47a1f8;}.cls-26,.cls-43,.cls-61,.cls-67,.cls-75{opacity:0.5;}.cls-27{mask:url(#mask-18);}.cls-28{mask:url(#mask-19);}.cls-29{mask:url(#mask-20);}.cls-31{mask:url(#mask-21);}.cls-32{fill:#ebebff;}.cls-33{mask:url(#mask-22);}.cls-34{fill:#001375;}.cls-35{mask:url(#mask-23);}.cls-36,.cls-37,.cls-51,.cls-52,.cls-54,.cls-55,.cls-65,.cls-66,.cls-68,.cls-73,.cls-74{stroke:#fff;}.cls-36,.cls-45{stroke-width:4px;}.cls-37,.cls-41,.cls-46{stroke-width:3px;}.cls-37,.cls-40,.cls-46,.cls-52,.cls-55,.cls-66,.cls-74{opacity:0.6;}.cls-38{opacity:0.7;}.cls-39{fill:url(#linear-gradient-2);}.cls-41,.cls-45,.cls-46{stroke:#8d65ff;}.cls-42{fill:url(#linear-gradient-3);}.cls-44{fill:url(#linear-gradient-4);}.cls-47{mask:url(#mask-24);}.cls-48{opacity:0.4;}.cls-49{fill:url(#linear-gradient-5);}.cls-50{mask:url(#mask-25);}.cls-51{stroke-width:2.4px;}.cls-52{stroke-width:1.8px;}.cls-53{fill:url(#linear-gradient-6);}.cls-54{stroke-width:2.5px;}.cls-55{stroke-width:1.8px;}.cls-56{fill:url(#linear-gradient-7);}.cls-57{fill:url(#linear-gradient-8);}.cls-58{mask:url(#mask-26);}.cls-59{opacity:0.25;}.cls-60{fill:url(#linear-gradient-9);}.cls-62{fill:url(#linear-gradient-10);}.cls-63{mask:url(#mask-27);}.cls-64{fill:url(#linear-gradient-11);}.cls-65{stroke-width:1.37px;}.cls-66{stroke-width:0.99px;}.cls-67{fill:url(#linear-gradient-12);}.cls-68{stroke-width:1.98px;}.cls-69{fill:url(#linear-gradient-13);}.cls-71{mask:url(#mask-28);}.cls-72{fill:url(#linear-gradient-14);}.cls-73{stroke-width:2.5px;}.cls-74{stroke-width:1.8px;}.cls-75{fill:url(#linear-gradient-15);}.cls-76{fill:#5269ff;}.cls-77{mask:url(#mask-29);}.cls-78{stroke:#222d9f;stroke-width:0.7px;}.cls-79{mask:url(#mask-30);}.cls-80{mask:url(#mask-31);}.cls-81{mask:url(#mask-32);}.cls-82{mask:url(#mask-33);}.cls-83{stroke-width:0.77px;}.cls-84{mask:url(#mask-34);}</style><linearGradient id="linear-gradient" x1="-17.09" y1="730.22" x2="-16.2" y2="728.22" gradientTransform="translate(-9674.51 404233.51) rotate(180) scale(601.04 553.98)" gradientUnits="userSpaceOnUse"><stop offset="0" stop-color="#4f33e2"/><stop offset="1" stop-color="#44c7ff"/></linearGradient><mask id="mask" x="22.99" y="0" width="601.04" height="575.08" maskUnits="userSpaceOnUse"><g transform="translate(1.93 8.31)"><g id="mask-3"><path id="path-2" class="cls-1" d="M604.85,74.4a40.89,40.89,0,0,1,14.48,19.22c2.87,7.8,3.92,15.3,1.13,35.16L567.63,504.71c-2.8,19.87-5.88,26.78-10.78,33.5a40.9,40.9,0,0,1-19.21,14.47c-7.81,2.87-15.3,3.92-35.17,1.13L71.79,493.28C51.93,490.49,45,487.41,38.3,482.51a40.89,40.89,0,0,1-14.48-19.22c-2.86-7.8-3.92-15.3-1.13-35.16L75.53,52.2C78.32,32.33,81.4,25.42,86.3,18.7A41,41,0,0,1,105.51,4.23c7.81-2.87,15.31-3.92,35.17-1.13L571.36,63.63C591.23,66.42,598.14,69.5,604.85,74.4Z"/></g></g></mask><mask id="mask-3-3" x="22.99" y="9.78" width="601.04" height="553.98" maskUnits="userSpaceOnUse"><g transform="translate(1.93 8.31)"><g id="mask-3-4" data-name="mask-3"><path id="path-2-3" data-name="path-2" class="cls-1" d="M604.85,74.4a40.89,40.89,0,0,1,14.48,19.22c2.87,7.8,3.92,15.3,1.13,35.16L567.63,504.71c-2.8,19.87-5.88,26.78-10.78,33.5a40.9,40.9,0,0,1-19.21,14.47c-7.81,2.87-15.3,3.92-35.17,1.13L71.79,493.28C51.93,490.49,45,487.41,38.3,482.51a40.89,40.89,0,0,1-14.48-19.22c-2.86-7.8-3.92-15.3-1.13-35.16L75.53,52.2C78.32,32.33,81.4,25.42,86.3,18.7A41,41,0,0,1,105.51,4.23c7.81-2.87,15.31-3.92,35.17-1.13L571.36,63.63C591.23,66.42,598.14,69.5,604.85,74.4Z"/></g></g></mask><mask id="mask-4" x="22.48" y="9.78" width="601.54" height="553.98" maskUnits="userSpaceOnUse"><g transform="translate(1.93 8.31)"><g id="mask-3-5" data-name="mask-3"><path id="path-2-4" data-name="path-2" class="cls-1" d="M604.85,74.4a40.89,40.89,0,0,1,14.48,19.22c2.87,7.8,3.92,15.3,1.13,35.16L567.63,504.71c-2.8,19.87-5.88,26.78-10.78,33.5a40.9,40.9,0,0,1-19.21,14.47c-7.81,2.87-15.3,3.92-35.17,1.13L71.79,493.28C51.93,490.49,45,487.41,38.3,482.51a40.89,40.89,0,0,1-14.48-19.22c-2.86-7.8-3.92-15.3-1.13-35.16L75.53,52.2C78.32,32.33,81.4,25.42,86.3,18.7A41,41,0,0,1,105.51,4.23c7.81-2.87,15.31-3.92,35.17-1.13L571.36,63.63C591.23,66.42,598.14,69.5,604.85,74.4Z"/></g></g></mask><mask id="mask-10" x="47.52" y="323.26" width="80.54" height="177.74" maskUnits="userSpaceOnUse"><g transform="translate(1.93 8.31)"><g id="mask-5-2" data-name="mask-5"><path id="path-4" class="cls-1" d="M89.16,492.68q16.29-16.11,22.88-27,25.38-41.81,5-100.13C110.35,378.87,92.68,392,80,412.72Q62,442,71.42,490.29Z"/></g></g></mask><mask id="mask-11" x="70.09" y="371.95" width="57.96" height="129.04" maskUnits="userSpaceOnUse"><g transform="translate(1.93 8.31)"><g id="mask-5-3" data-name="mask-5"><path id="path-4-2" data-name="path-4" class="cls-1" d="M89.16,492.68q16.29-16.11,22.88-27,25.38-41.81,5-100.13C110.35,378.87,92.68,392,80,412.72Q62,442,71.42,490.29Z"/></g></g></mask><mask id="mask-12" x="70.09" y="373.89" width="61.37" height="127.1" maskUnits="userSpaceOnUse"><g transform="translate(1.93 8.31)"><g id="mask-5-4" data-name="mask-5"><path id="path-4-3" data-name="path-4" class="cls-1" d="M89.16,492.68q16.29-16.11,22.88-27,25.38-41.81,5-100.13C110.35,378.87,92.68,392,80,412.72Q62,442,71.42,490.29Z"/></g></g></mask><mask id="mask-13" x="70.09" y="373.89" width="59.35" height="127.1" maskUnits="userSpaceOnUse"><g transform="translate(1.93 8.31)"><g id="mask-5-5" data-name="mask-5"><path id="path-4-4" data-name="path-4" class="cls-1" d="M89.16,492.68q16.29-16.11,22.88-27,25.38-41.81,5-100.13C110.35,378.87,92.68,392,80,412.72Q62,442,71.42,490.29Z"/></g></g></mask><mask id="mask-14" x="70.09" y="373.89" width="57.96" height="127.1" maskUnits="userSpaceOnUse"><g transform="translate(1.93 8.31)"><g id="mask-5-6" data-name="mask-5"><path id="path-4-5" data-name="path-4" class="cls-1" d="M89.16,492.68q16.29-16.11,22.88-27,25.38-41.81,5-100.13C110.35,378.87,92.68,392,80,412.72Q62,442,71.42,490.29Z"/></g></g></mask><mask id="mask-15" x="21.1" y="9.78" width="602.92" height="563.68" maskUnits="userSpaceOnUse"><g transform="translate(1.93 8.31)"><g id="mask-3-11" data-name="mask-3"><path id="path-2-10" data-name="path-2" class="cls-1" d="M604.85,74.4a40.89,40.89,0,0,1,14.48,19.22c2.87,7.8,3.92,15.3,1.13,35.16L567.63,504.71c-2.8,19.87-5.88,26.78-10.78,33.5a40.9,40.9,0,0,1-19.21,14.47c-7.81,2.87-15.3,3.92-35.17,1.13L71.79,493.28C51.93,490.49,45,487.41,38.3,482.51a40.89,40.89,0,0,1-14.48-19.22c-2.86-7.8-3.92-15.3-1.13-35.16L75.53,52.2C78.32,32.33,81.4,25.42,86.3,18.7A41,41,0,0,1,105.51,4.23c7.81-2.87,15.31-3.92,35.17-1.13L571.36,63.63C591.23,66.42,598.14,69.5,604.85,74.4Z"/></g></g></mask><mask id="mask-16" x="21.1" y="463.47" width="555.3" height="109.99" maskUnits="userSpaceOnUse"><g transform="translate(1.93 8.31)"><g id="mask-7-2" data-name="mask-7"><polygon id="path-6" class="cls-1" points="574.47 565.15 19.17 565.15 19.17 479.65 574.47 479.65 574.47 565.15"/></g></g></mask><mask id="mask-17" x="21.1" y="487.96" width="555.3" height="103.9" maskUnits="userSpaceOnUse"><g transform="translate(1.93 8.31)"><g id="mask-7-3" data-name="mask-7"><polygon id="path-6-2" data-name="path-6" class="cls-1" points="574.47 565.15 19.17 565.15 19.17 479.65 574.47 479.65 574.47 565.15"/></g></g></mask><mask id="mask-18" x="21.1" y="487.96" width="555.3" height="92.4" maskUnits="userSpaceOnUse"><g transform="translate(1.93 8.31)"><g id="mask-7-4" data-name="mask-7"><polygon id="path-6-3" data-name="path-6" class="cls-1" points="574.47 565.15 19.17 565.15 19.17 479.65 574.47 479.65 574.47 565.15"/></g></g></mask><mask id="mask-19" x="21.1" y="483.33" width="555.3" height="90.13" maskUnits="userSpaceOnUse"><g transform="translate(1.93 8.31)"><g id="mask-7-5" data-name="mask-7"><polygon id="path-6-4" data-name="path-6" class="cls-1" points="574.47 565.15 19.17 565.15 19.17 479.65 574.47 479.65 574.47 565.15"/></g></g></mask><mask id="mask-20" x="21.1" y="487.96" width="555.3" height="85.5" maskUnits="userSpaceOnUse"><g transform="translate(1.93 8.31)"><g id="mask-7-6" data-name="mask-7"><polygon id="path-6-5" data-name="path-6" class="cls-1" points="574.47 565.15 19.17 565.15 19.17 479.65 574.47 479.65 574.47 565.15"/></g></g></mask><mask id="mask-21" x="22.99" y="9.78" width="639.54" height="553.98" maskUnits="userSpaceOnUse"><g transform="translate(1.93 8.31)"><g id="mask-3-12" data-name="mask-3"><path id="path-2-11" data-name="path-2" class="cls-1" d="M604.85,74.4a40.89,40.89,0,0,1,14.48,19.22c2.87,7.8,3.92,15.3,1.13,35.16L567.63,504.71c-2.8,19.87-5.88,26.78-10.78,33.5a40.9,40.9,0,0,1-19.21,14.47c-7.81,2.87-15.3,3.92-35.17,1.13L71.79,493.28C51.93,490.49,45,487.41,38.3,482.51a40.89,40.89,0,0,1-14.48-19.22c-2.86-7.8-3.92-15.3-1.13-35.16L75.53,52.2C78.32,32.33,81.4,25.42,86.3,18.7A41,41,0,0,1,105.51,4.23c7.81-2.87,15.31-3.92,35.17-1.13L571.36,63.63C591.23,66.42,598.14,69.5,604.85,74.4Z"/></g></g></mask><mask id="mask-22" x="417.51" y="440.11" width="80.19" height="48.01" maskUnits="userSpaceOnUse"><g transform="translate(1.93 8.31)"><g id="mask-9-2" data-name="mask-9"><path id="path-8" class="cls-1" d="M495.77,479.8H415.58l17.82-48H478Zm-44.55-42.66v13.37a4.46,4.46,0,0,0,8.91,0V437.14Z"/></g></g></mask><mask id="mask-23" x="252.67" y="171.89" width="409.86" height="276.21" maskUnits="userSpaceOnUse"><g transform="translate(1.93 8.31)"><g id="mask-13-2" data-name="mask-13"><rect id="path-12" class="cls-2" x="250.74" y="163.58" width="409.86" height="276.21" rx="7.13"/></g></g></mask><linearGradient id="linear-gradient-2" x1="-17.75" y1="729.54" x2="-16.7" y2="727.74" gradientTransform="translate(-1259.32 113216.71) rotate(180) scale(106.67 155)" gradientUnits="userSpaceOnUse"><stop offset="0" stop-color="#df81ff"/><stop offset="1" stop-color="#775dff"/></linearGradient><linearGradient id="linear-gradient-3" x1="-17.78" y1="729.51" x2="-16.78" y2="727.94" gradientTransform="translate(-1381.23 113216.71) rotate(180) scale(106.67 155)" gradientUnits="userSpaceOnUse"><stop offset="0" stop-color="#ffe3c3"/><stop offset="1" stop-color="#ff7bb5"/></linearGradient><linearGradient id="linear-gradient-4" x1="-17.56" y1="729.34" x2="-16.86" y2="727.88" gradientTransform="translate(-1503.32 113216.71) rotate(180) scale(106.67 155)" gradientUnits="userSpaceOnUse"><stop offset="0" stop-color="#7694ff"/><stop offset="1" stop-color="#85f5ff"/></linearGradient><mask id="mask-24" x="252.67" y="171.89" width="409.86" height="280.1" maskUnits="userSpaceOnUse"><g transform="translate(1.93 8.31)"><g id="mask-13-3" data-name="mask-13"><rect id="path-12-2" data-name="path-12" class="cls-2" x="250.74" y="163.58" width="409.86" height="276.21" rx="7.13"/></g></g></mask><linearGradient id="linear-gradient-5" x1="-17.51" y1="729.76" x2="-16.32" y2="727.68" gradientTransform="translate(-3430.68 109162.39) rotate(180) scale(219.43 149.28)" gradientUnits="userSpaceOnUse"><stop offset="0" stop-color="#f2cbff"/><stop offset="1" stop-color="#775dff"/></linearGradient><mask id="mask-25" x="161.12" y="324.32" width="219.43" height="149.38" maskUnits="userSpaceOnUse"><g transform="translate(1.93 8.31)"><g id="mask-19-2" data-name="mask-19"><path id="path-18" class="cls-1" d="M378.61,324.51V465.29H159.18V324.51a8.5,8.5,0,0,1,8.51-8.5H370.11A8.5,8.5,0,0,1,378.61,324.51Z"/></g></g></mask><linearGradient id="linear-gradient-6" x1="-18.47" y1="729.01" x2="-17.41" y2="727.21" gradientTransform="translate(-643.21 65184.52) rotate(180) scale(54.4 89)" xlink:href="#linear-gradient-2"/><linearGradient id="linear-gradient-7" x1="-18.49" y1="728.98" x2="-17.49" y2="727.41" gradientTransform="translate(-707.23 65184.52) rotate(180) scale(54.4 89)" xlink:href="#linear-gradient-3"/><linearGradient id="linear-gradient-8" x1="-18.27" y1="728.8" x2="-17.57" y2="727.34" gradientTransform="translate(-771.23 65185.52) rotate(180) scale(54.4 89)" xlink:href="#linear-gradient-4"/><mask id="mask-26" x="157.49" y="324.32" width="223.18" height="153.86" maskUnits="userSpaceOnUse"><g transform="translate(1.93 8.31)"><g id="mask-19-3" data-name="mask-19"><path id="path-18-2" data-name="path-18" class="cls-1" d="M378.61,324.51V465.29H159.18V324.51a8.5,8.5,0,0,1,8.51-8.5H370.11A8.5,8.5,0,0,1,378.61,324.51Z"/></g></g></mask><linearGradient id="linear-gradient-9" x1="-17.25" y1="724.03" x2="-16.4" y2="720.71" gradientTransform="translate(-4553.34 11527.13) rotate(180) scale(287.47 15.31)" gradientUnits="userSpaceOnUse"><stop offset="0" stop-color="#f2cbff"/><stop offset="1" stop-color="#a695ff"/></linearGradient><linearGradient id="linear-gradient-10" x1="-17.03" y1="728.8" x2="-16.33" y2="727.35" gradientTransform="translate(39171.26 69218.01) rotate(150) scale(58.41 108.9)" xlink:href="#linear-gradient-4"/><mask id="mask-27" x="312.62" y="13.89" width="102.92" height="107.3" maskUnits="userSpaceOnUse"><g transform="translate(1.93 8.31)"><g id="mask-22-2" data-name="mask-22"><path id="path-21" class="cls-1" d="M364,5.58a3.62,3.62,0,0,1,2.05.55,5.69,5.69,0,0,1,2,2.38L412.54,85.6a5.66,5.66,0,0,1,1.07,2.91,3.56,3.56,0,0,1-.55,2,5.64,5.64,0,0,1-2.37,2l-33.38,19.27a5.84,5.84,0,0,1-2.9,1.07,3.68,3.68,0,0,1-2.05-.55,5.76,5.76,0,0,1-2-2.38l-44.52-77.1a5.69,5.69,0,0,1-1.06-2.91,3.51,3.51,0,0,1,.55-2,5.64,5.64,0,0,1,2.37-2l5.76-3.33A4,4,0,0,0,338.89,24l15-8.66A4,4,0,0,0,355.34,10h0l5.76-3.32A5.64,5.64,0,0,1,364,5.58Z"/></g></g></mask><linearGradient id="linear-gradient-11" x1="-17.4" y1="727.85" x2="-16.35" y2="726.05" gradientTransform="translate(-170.59 41171.8) rotate(180) scale(31.91 56.56)" xlink:href="#linear-gradient-2"/><linearGradient id="linear-gradient-12" x1="-17.43" y1="727.56" x2="-16.43" y2="725.99" gradientTransform="translate(-202.19 37178.4) rotate(180) scale(31.91 51.06)" xlink:href="#linear-gradient-3"/><linearGradient id="linear-gradient-13" x1="-18.05" y1="729.92" x2="-17.14" y2="727.92" gradientTransform="translate(-57669.29 96408.67) rotate(-150) scale(109.35 153.9)" gradientUnits="userSpaceOnUse"><stop offset="0" stop-color="#ffe8e8"/><stop offset="1" stop-color="#ff7bb5"/></linearGradient><mask id="mask-28" x="0" y="130.39" width="177.58" height="167.21" maskUnits="userSpaceOnUse"><g transform="translate(1.93 8.31)"><g id="mask-25-2" data-name="mask-25"><rect id="path-24" class="cls-2" x="33.58" y="158.26" width="132.84" height="98.01" transform="translate(-129.49 190.23) rotate(-60)"/></g></g></mask><linearGradient id="linear-gradient-14" x1="-19.18" y1="729.68" x2="-18.18" y2="728.11" gradientTransform="matrix(0, -58.01, 102.84, 0, -74848.64, -871.82)" xlink:href="#linear-gradient-3"/><linearGradient id="linear-gradient-15" x1="-18.97" y1="729.44" x2="-18.27" y2="727.98" gradientTransform="matrix(0, -58.01, 92.84, 0, -67613.77, -905.9)" xlink:href="#linear-gradient-4"/><mask id="mask-29" x="24.82" y="326.44" width="62.54" height="181.68" maskUnits="userSpaceOnUse"><g transform="translate(1.93 8.31)"><g id="mask-27-2" data-name="mask-27"><path id="path-26" class="cls-1" d="M65.64,492.65Q29.82,395,24.75,366.78c-8.33-46.28,13.17-51.2,25.54-42.14Q83,348.58,85.43,495.57Z"/></g></g></mask><mask id="mask-30" x="24.82" y="328.36" width="62.54" height="177.25" maskUnits="userSpaceOnUse"><g transform="translate(1.93 8.31)"><g id="mask-27-3" data-name="mask-27"><path id="path-26-2" data-name="path-26" class="cls-1" d="M65.64,492.65Q29.82,395,24.75,366.78c-8.33-46.28,13.17-51.2,25.54-42.14Q83,348.58,85.43,495.57Z"/></g></g></mask><mask id="mask-31" x="21.95" y="329.2" width="65.41" height="174.68" maskUnits="userSpaceOnUse"><g transform="translate(1.93 8.31)"><g id="mask-27-4" data-name="mask-27"><path id="path-26-3" data-name="path-26" class="cls-1" d="M65.64,492.65Q29.82,395,24.75,366.78c-8.33-46.28,13.17-51.2,25.54-42.14Q83,348.58,85.43,495.57Z"/></g></g></mask><mask id="mask-32" x="24.82" y="329.2" width="62.54" height="174.68" maskUnits="userSpaceOnUse"><g transform="translate(1.93 8.31)"><g id="mask-27-5" data-name="mask-27"><path id="path-26-4" data-name="path-26" class="cls-1" d="M65.64,492.65Q29.82,395,24.75,366.78c-8.33-46.28,13.17-51.2,25.54-42.14Q83,348.58,85.43,495.57Z"/></g></g></mask><mask id="mask-33" x="4.29" y="424.89" width="63.03" height="76.34" maskUnits="userSpaceOnUse"><g transform="translate(1.93 8.31)"><g id="mask-29-2" data-name="mask-29"><path id="path-28" class="cls-1" d="M45.21,488.09C39,486.15-3.4,475.07,3,459.78q6.4-15.28,39.29,12.81-28.91-50.68-8.44-55t31.51,74.6Q51.57,490.09,45.21,488.09Z"/></g></g></mask><mask id="mask-34" x="4.29" y="425.69" width="63.03" height="74.82" maskUnits="userSpaceOnUse"><g transform="translate(1.93 8.31)"><g id="mask-29-3" data-name="mask-29"><path id="path-28-2" data-name="path-28" class="cls-1" d="M45.21,488.09C39,486.15-3.4,475.07,3,459.78q6.4-15.28,39.29,12.81-28.91-50.68-8.44-55t31.51,74.6Q51.57,490.09,45.21,488.09Z"/></g></g></mask></defs><g id="Page-1"><g id="Final"><g id="easy-to-use-"><g id="Illustration-1"><path id="Rectangle-11" class="cls-3" d="M627.77,176.37A40.15,40.15,0,0,1,642,195.2c2.8,7.65,3.84,15,1.1,34.46L595.65,567c-2.74,19.47-5.76,26.24-10.56,32.82A40,40,0,0,1,566.26,614c-7.65,2.81-15,3.84-34.46,1.11L153.58,562c-19.47-2.73-26.24-5.75-32.82-10.56a40.1,40.1,0,0,1-14.19-18.83c-2.81-7.65-3.84-15-1.1-34.46l47.41-337.37c2.74-19.46,5.75-26.24,10.56-32.82a40.15,40.15,0,0,1,18.83-14.19c7.65-2.8,15-3.84,34.46-1.1L595,165.81C614.41,168.55,621.19,171.57,627.77,176.37Z" transform="translate(1.93 8.31)"/><g id="Group-20"><g id="Group-49"><g id="Rectangle-11-2" data-name="Rectangle-11"><path id="path-2-12" data-name="path-2" class="cls-4" d="M604.85,74.4a40.89,40.89,0,0,1,14.48,19.22c2.87,7.8,3.92,15.3,1.13,35.16L567.63,504.71c-2.8,19.87-5.88,26.78-10.78,33.5a40.9,40.9,0,0,1-19.21,14.47c-7.81,2.87-15.3,3.92-35.17,1.13L71.79,493.28C51.93,490.49,45,487.41,38.3,482.51a40.89,40.89,0,0,1-14.48-19.22c-2.86-7.8-3.92-15.3-1.13-35.16L75.53,52.2C78.32,32.33,81.4,25.42,86.3,18.7A41,41,0,0,1,105.51,4.23c7.81-2.87,15.31-3.92,35.17-1.13L571.36,63.63C591.23,66.42,598.14,69.5,604.85,74.4Z" transform="translate(1.93 8.31)"/></g><g class="cls-5"><polygon id="Path-28-7" data-name="Path-28" class="cls-6" points="83.51 0 53.16 186.16 116.17 509.97 562.84 575.08 564.6 232.94 210.95 6.65 83.51 0"/></g><g class="cls-5"><polygon id="Path-28-8" data-name="Path-28" class="cls-7" points="83.51 0 53.16 186.16 197.69 522.49 562.84 575.08 564.6 379.23 210.95 6.65 83.51 0"/></g><g class="cls-8"><path id="Rectangle-23" class="cls-9" d="M380.39,4.74a6.21,6.21,0,0,1,3.58,1c1.08.67,1.92,1.48,3.47,4.16L433,88.78c1.55,2.67,1.83,3.81,1.87,5.09a6.24,6.24,0,0,1-1,3.57c-.67,1.09-1.48,1.93-4.16,3.47l-35.2,20.33c-2.67,1.54-3.8,1.82-5.08,1.86a6.29,6.29,0,0,1-3.58-1c-1.09-.67-1.93-1.48-3.47-4.16L336.85,39.06C335.31,36.39,335,35.25,335,34a6.31,6.31,0,0,1,1-3.57c.68-1.09,1.49-1.93,4.16-3.47L375.3,6.6C378,5.06,379.11,4.78,380.39,4.74Z" transform="translate(1.93 8.31)"/></g><g class="cls-10"><path id="Rectangle-22" class="cls-9" d="M186.49,184.51a5.91,5.91,0,0,1,.9,3.35c0,1.19-.3,2.25-1.75,4.75L117,311.51c-1.45,2.5-2.23,3.25-3.25,3.89a5.87,5.87,0,0,1-3.34.89c-1.2,0-2.26-.3-4.76-1.74L25.34,268.18c-2.5-1.45-3.26-2.23-3.89-3.25a5.88,5.88,0,0,1-.9-3.34c0-1.2.3-2.26,1.75-4.76L90.94,137.94c1.45-2.5,2.23-3.26,3.25-3.89a5.88,5.88,0,0,1,3.34-.9c1.2,0,2.26.3,4.76,1.75l80.31,46.37C185.1,182.71,185.86,183.49,186.49,184.51Z" transform="translate(1.93 8.31)"/></g><g class="cls-8"><circle id="Oval-12" class="cls-11" cx="210.3" cy="44.86" r="4"/></g><g class="cls-8"><circle id="Oval-13" class="cls-12" cx="209.8" cy="226.36" r="5.5"/></g><g class="cls-8"><circle id="Oval-8" class="cls-13" cx="557.8" cy="182.36" r="51.5"/></g><g class="cls-8"><circle id="Oval-9" class="cls-13" cx="492.8" cy="99.36" r="4.5"/></g><g class="cls-8"><g id="Group-53"><g id="Path-11"><path id="path-4-6" data-name="path-4" class="cls-14" d="M89.16,492.68q16.29-16.11,22.88-27,25.38-41.81,5-100.13C110.35,378.87,92.68,392,80,412.72Q62,442,71.42,490.29Z" transform="translate(1.93 8.31)"/></g><g class="cls-15"><path id="Path-9" class="cls-16" d="M75.64,485.65Q52.45,388.9,47.38,360.71c-8.33-46.28,14.31-51,26.68-42q32.68,23.94,10.5,168.55Z" transform="translate(1.93 8.31)"/></g><g class="cls-17"><path id="Path-22" class="cls-18" d="M71.17,490.57q17.1-23.83,30.26-55.14t16-71.77" transform="translate(1.93 8.31)"/></g><g class="cls-19"><polyline id="Path-23" class="cls-18" points="102.39 390.55 113.34 412.7 131.31 405.13"/></g><g class="cls-20"><polyline id="Path-24-2" data-name="Path-24" class="cls-18" points="85.64 412.47 103.84 442.8 129.36 436.76"/></g><g class="cls-21"><polyline id="Path-25" class="cls-18" points="71.63 440.45 90.58 471.03 119.85 466.74"/></g></g></g><g class="cls-22"><g id="Group-54"><g id="Rectangle-31"><polygon id="path-6-6" data-name="path-6" class="cls-14" points="576.4 573.46 21.1 573.46 21.1 487.96 576.4 487.96 576.4 573.46"/></g><g class="cls-23"><circle id="Oval-7" class="cls-24" cx="223.25" cy="493.92" r="29.95"/></g><g class="cls-25"><polygon id="Rectangle-32" class="cls-26" points="484.3 591.86 417.3 591.86 417.3 524.86 484.3 524.86 484.3 591.86"/></g><g class="cls-27"><polygon id="Rectangle-32-2" data-name="Rectangle-32" class="cls-24" points="468.3 579.86 401.3 579.86 401.3 512.86 468.3 512.86 468.3 579.86"/></g><g class="cls-28"><path id="Path-12-3" data-name="Path-12" class="cls-24" d="M509.36,475.52l43,88.77" transform="translate(1.93 8.31)"/></g><g class="cls-29"><path id="Path-26-5" data-name="Path-26" class="cls-30" d="M497.31,560.91q57.6,9.81,66.82-27.55v-22q-8.42,25.07-50.36,30.37T108.55,499Q439.69,551.09,497.31,560.91Z" transform="translate(1.93 8.31)"/></g></g></g><g class="cls-31"><g id="Group-57"><g id="Combined-Shape"><path id="path-8-2" data-name="path-8" class="cls-32" d="M495.77,479.8H415.58l17.82-48H478Zm-44.55-42.66v13.37a4.46,4.46,0,0,0,8.91,0V437.14Z" transform="translate(1.93 8.31)"/></g><g class="cls-33"><polygon id="Path-30" class="cls-34" points="483.11 443.42 489.96 461.56 424.28 447.37 483.11 443.42"/></g></g><g id="Group-55"><g id="Rectangle-29"><path id="path-10" class="cls-1" d="M537.18,465.54a1.6,1.6,0,0,1,.67.67,2.55,2.55,0,0,1,.24,1.38V478a2.55,2.55,0,0,1-.24,1.38,1.66,1.66,0,0,1-.67.67,2.65,2.65,0,0,1-1.38.24H375.54a2.68,2.68,0,0,1-1.38-.24,1.66,1.66,0,0,1-.67-.67,2.65,2.65,0,0,1-.24-1.38V467.59a2.65,2.65,0,0,1,.24-1.38,1.6,1.6,0,0,1,.67-.67,2.57,2.57,0,0,1,1.38-.24H535.8A2.55,2.55,0,0,1,537.18,465.54Z" transform="translate(1.93 8.31)"/></g></g><g id="Group-56"><g id="Rectangle-27"><rect id="path-12-4" data-name="path-12" class="cls-2" x="252.67" y="171.89" width="409.86" height="276.21" rx="7.13"/></g><g class="cls-35"><g id="Group-49-2" data-name="Group-49"><g id="Group-56-2" data-name="Group-56"><polygon id="Rectangle-27-2" data-name="Rectangle-27" class="cls-14" points="655.28 430.51 263.72 430.51 263.72 183.3 655.28 183.3 655.28 430.51"/><g id="Group-59"><path id="Path-32" class="cls-36" d="M412.33,375.23h60.4" transform="translate(1.93 8.31)"/><polyline id="Path-33" class="cls-36" points="495.53 390.41 506.84 401.73 513.61 394.96"/><path id="Path-32-2" data-name="Path-32" class="cls-37" d="M432.33,390.23h40.4" transform="translate(1.93 8.31)"/><path id="Path-32-3" data-name="Path-32" class="cls-37" d="M425.33,400.23h47.4" transform="translate(1.93 8.31)"/></g><g id="Group-61" class="cls-38"><path id="Rectangle-33" class="cls-39" d="M631.53,196.16a2.7,2.7,0,0,1,1.14,1.13,4.38,4.38,0,0,1,.4,2.31V346.91a4.36,4.36,0,0,1-.4,2.31,2.72,2.72,0,0,1-1.14,1.14,4.36,4.36,0,0,1-2.31.4h-99a4.38,4.38,0,0,1-2.31-.4,2.7,2.7,0,0,1-1.13-1.14,4.36,4.36,0,0,1-.4-2.31V199.6a4.38,4.38,0,0,1,.4-2.31,2.68,2.68,0,0,1,1.13-1.13,4.38,4.38,0,0,1,2.31-.4h99A4.36,4.36,0,0,1,631.53,196.16Z" transform="translate(1.93 8.31)"/><g id="Group-60" class="cls-40"><path id="Path-32-4" data-name="Path-32" class="cls-41" d="M557.08,334.76h60.39" transform="translate(1.93 8.31)"/></g></g><g id="Group-61-Copy"><path id="Rectangle-33-2" data-name="Rectangle-33" class="cls-42" d="M509.63,196.16a2.68,2.68,0,0,1,1.13,1.13,4.38,4.38,0,0,1,.4,2.31V346.91a4.36,4.36,0,0,1-.4,2.31,2.7,2.7,0,0,1-1.13,1.14,4.38,4.38,0,0,1-2.31.4h-99a4.36,4.36,0,0,1-2.31-.4,2.72,2.72,0,0,1-1.14-1.14,4.36,4.36,0,0,1-.4-2.31V199.6a4.38,4.38,0,0,1,.4-2.31,2.7,2.7,0,0,1,1.14-1.13,4.36,4.36,0,0,1,2.31-.4h99A4.38,4.38,0,0,1,509.63,196.16Z" transform="translate(1.93 8.31)"/><g id="Group-60-2" data-name="Group-60"><path id="Path-32-5" data-name="Path-32" class="cls-36" d="M460.17,322.76h35.4" transform="translate(1.93 8.31)"/><path id="Path-32-6" data-name="Path-32" class="cls-37" d="M435.17,334.76h60.4" transform="translate(1.93 8.31)"/></g><path id="Triangle-3" class="cls-1" d="M447.14,254.25a2,2,0,0,1,.75-2.73l15.95-9.06a1.91,1.91,0,0,1,1-.27,2,2,0,0,1,2,2v18.13a2,2,0,0,1-3,1.74L447.89,255A2,2,0,0,1,447.14,254.25Z" transform="translate(1.93 8.31)"/></g><g id="Group-61-Copy-2" class="cls-43"><path id="Rectangle-33-3" data-name="Rectangle-33" class="cls-44" d="M387.53,196.16a2.7,2.7,0,0,1,1.14,1.13,4.38,4.38,0,0,1,.4,2.31V346.91a4.36,4.36,0,0,1-.4,2.31,2.72,2.72,0,0,1-1.14,1.14,4.36,4.36,0,0,1-2.31.4h-99a4.38,4.38,0,0,1-2.31-.4,2.7,2.7,0,0,1-1.13-1.14,4.36,4.36,0,0,1-.4-2.31V199.6a4.38,4.38,0,0,1,.4-2.31,2.68,2.68,0,0,1,1.13-1.13,4.38,4.38,0,0,1,2.31-.4h99A4.36,4.36,0,0,1,387.53,196.16Z" transform="translate(1.93 8.31)"/><g id="Group-60-3" data-name="Group-60"><path id="Path-32-7" data-name="Path-32" class="cls-45" d="M338.08,322.76h35.39" transform="translate(1.93 8.31)"/><path id="Path-32-8" data-name="Path-32" class="cls-46" d="M313.08,334.76h60.39" transform="translate(1.93 8.31)"/></g><path id="Triangle-3-2" data-name="Triangle-3" class="cls-1" d="M325,254.25a2,2,0,0,1,.75-2.73l15.95-9.06a2,2,0,0,1,1-.27,2,2,0,0,1,2,2v18.13a2,2,0,0,1-3,1.74L325.79,255A2.07,2.07,0,0,1,325,254.25Z" transform="translate(1.93 8.31)"/></g></g></g></g><g class="cls-47"><path id="Path-29" class="cls-48" d="M361,443.68h35.46V340.3a8,8,0,0,0-8-8H361Z" transform="translate(1.93 8.31)"/></g></g></g></g><g id="Group-48"><g id="Group-58"><g id="Rectangle-20"><path id="path-18-3" data-name="path-18" class="cls-49" d="M378.61,324.51V465.29H159.18V324.51a8.5,8.5,0,0,1,8.51-8.5H370.11A8.5,8.5,0,0,1,378.61,324.51Z" transform="translate(1.93 8.31)"/></g><g class="cls-50"><g id="Group-62"><polygon id="Rectangle-20-2" data-name="Rectangle-20" class="cls-14" points="370.95 473.7 168.73 473.7 168.73 334.63 372.75 334.63 370.95 473.7"/><g id="Group-59-2" data-name="Group-59"><path id="Path-32-9" data-name="Path-32" class="cls-51" d="M241.22,440.87h36.24" transform="translate(1.93 8.31)"/><polyline id="Path-33-2" data-name="Path-33" class="cls-51" points="291.91 450.31 298.7 457.09 302.76 453.03"/><path id="Path-32-10" data-name="Path-32" class="cls-52" d="M253.22,449.87h24.24" transform="translate(1.93 8.31)"/></g><g id="Group-61-2" data-name="Group-61"><path id="Rectangle-33-4" data-name="Rectangle-33" class="cls-53" d="M359.08,336.71a2.76,2.76,0,0,1,1.13,1.14,4.36,4.36,0,0,1,.4,2.31v81.31a4.38,4.38,0,0,1-.4,2.31,2.68,2.68,0,0,1-1.13,1.13,4.38,4.38,0,0,1-2.31.4H310.06a4.33,4.33,0,0,1-2.31-.4,2.7,2.7,0,0,1-1.14-1.13,4.38,4.38,0,0,1-.4-2.31V340.16a4.36,4.36,0,0,1,.4-2.31,2.78,2.78,0,0,1,1.14-1.14,4.33,4.33,0,0,1,2.31-.4h46.71A4.38,4.38,0,0,1,359.08,336.71Z" transform="translate(1.93 8.31)"/><g id="Group-60-4" data-name="Group-60"><path id="Path-32-11" data-name="Path-32" class="cls-54" d="M334.61,403.08h18.05" transform="translate(1.93 8.31)"/><path id="Path-32-12" data-name="Path-32" class="cls-55" d="M321.86,410.2h30.8" transform="translate(1.93 8.31)"/><path id="Path-32-13" data-name="Path-32" class="cls-55" d="M327.86,415.2h24.8" transform="translate(1.93 8.31)"/></g><path id="Triangle-3-3" data-name="Triangle-3" class="cls-1" d="M328,366.14a1,1,0,0,1,.38-1.39l8.14-4.62a1,1,0,0,1,.5-.13,1,1,0,0,1,1,1v9.24a1,1,0,0,1-.13.5,1,1,0,0,1-1.39.39l-8.14-4.63A1,1,0,0,1,328,366.14Z" transform="translate(1.93 8.31)"/></g><g id="Group-61-Copy-3"><path id="Rectangle-33-5" data-name="Rectangle-33" class="cls-56" d="M295.07,336.71a2.76,2.76,0,0,1,1.13,1.14,4.36,4.36,0,0,1,.4,2.31v81.31a4.38,4.38,0,0,1-.4,2.31,2.68,2.68,0,0,1-1.13,1.13,4.38,4.38,0,0,1-2.31.4H246.05a4.4,4.4,0,0,1-2.32-.4,2.73,2.73,0,0,1-1.13-1.13,4.38,4.38,0,0,1-.4-2.31V340.16a4.36,4.36,0,0,1,.4-2.31,2.82,2.82,0,0,1,1.13-1.14,4.4,4.4,0,0,1,2.32-.4h46.71A4.38,4.38,0,0,1,295.07,336.71Z" transform="translate(1.93 8.31)"/><g id="Group-60-5" data-name="Group-60"><path id="Path-32-14" data-name="Path-32" class="cls-54" d="M270.6,403.08h18" transform="translate(1.93 8.31)"/><path id="Path-32-15" data-name="Path-32" class="cls-55" d="M257.85,410.2h30.8" transform="translate(1.93 8.31)"/><path id="Path-32-16" data-name="Path-32" class="cls-55" d="M263.85,415.2h24.8" transform="translate(1.93 8.31)"/></g><path id="Triangle-3-4" data-name="Triangle-3" class="cls-1" d="M264,366.14a1,1,0,0,1,.38-1.39l8.14-4.62a1,1,0,0,1,.5-.13,1,1,0,0,1,1,1v9.24a1.06,1.06,0,0,1-.13.5,1,1,0,0,1-1.39.39l-8.14-4.63A1,1,0,0,1,264,366.14Z" transform="translate(1.93 8.31)"/></g><g id="Group-61-Copy-4"><path id="Rectangle-33-6" data-name="Rectangle-33" class="cls-57" d="M231.07,337.71a2.76,2.76,0,0,1,1.13,1.14,4.36,4.36,0,0,1,.4,2.31v81.31a4.38,4.38,0,0,1-.4,2.31,2.68,2.68,0,0,1-1.13,1.13,4.38,4.38,0,0,1-2.31.4H182.05a4.4,4.4,0,0,1-2.32-.4,2.73,2.73,0,0,1-1.13-1.13,4.38,4.38,0,0,1-.4-2.31V341.16a4.36,4.36,0,0,1,.4-2.31,2.82,2.82,0,0,1,1.13-1.14,4.4,4.4,0,0,1,2.32-.4h46.71A4.38,4.38,0,0,1,231.07,337.71Z" transform="translate(1.93 8.31)"/><g id="Group-60-6" data-name="Group-60"><path id="Path-32-17" data-name="Path-32" class="cls-54" d="M206.6,404.08h18.05" transform="translate(1.93 8.31)"/><path id="Path-32-18" data-name="Path-32" class="cls-55" d="M193.85,411.2h30.8" transform="translate(1.93 8.31)"/><path id="Path-32-19" data-name="Path-32" class="cls-55" d="M199.85,416.2h24.8" transform="translate(1.93 8.31)"/></g><path id="Triangle-3-5" data-name="Triangle-3" class="cls-1" d="M200,367.14a1,1,0,0,1,.38-1.39l8.14-4.62a1,1,0,0,1,.5-.13,1,1,0,0,1,1,1v9.24a1.06,1.06,0,0,1-.13.5,1,1,0,0,1-1.39.39l-8.14-4.63A1,1,0,0,1,200,367.14Z" transform="translate(1.93 8.31)"/></g></g></g><g class="cls-58"><polygon id="Path-31" class="cls-59" points="380.67 478.17 157.49 473.63 380.67 460.51 380.67 478.17"/></g></g><path id="Rectangle-20-3" data-name="Rectangle-20" class="cls-60" d="M397.32,480.55H140.47a15.31,15.31,0,0,1-15.31-15.3H412.63A15.3,15.3,0,0,1,397.32,480.55Z" transform="translate(1.93 8.31)"/><path id="Rectangle-21" class="cls-61" d="M282.51,471.72H255.29a6.79,6.79,0,0,1-6.8-6.8h40.82A6.8,6.8,0,0,1,282.51,471.72Z" transform="translate(1.93 8.31)"/></g><g id="Group-47"><path id="Rectangle-23-2" data-name="Rectangle-23" class="cls-62" d="M365.07,0a6.35,6.35,0,0,1,3.58,1c1.09.68,1.93,1.49,3.47,4.16l45.57,78.93c1.54,2.67,1.83,3.8,1.87,5.08a6.37,6.37,0,0,1-1,3.58c-.68,1.09-1.49,1.93-4.16,3.47l-35.2,20.32c-2.67,1.55-3.81,1.83-5.09,1.87a6.24,6.24,0,0,1-3.57-1c-1.09-.67-1.93-1.48-3.47-4.16L321.54,34.37c-1.55-2.68-1.83-3.81-1.87-5.09a6.29,6.29,0,0,1,1-3.58c.68-1.08,1.49-1.92,4.16-3.47L360,1.91C362.66.37,363.79.09,365.07,0Z" transform="translate(1.93 8.31)"/><g id="Group-66"><g id="Rectangle-23-3" data-name="Rectangle-23"><path id="path-21-2" data-name="path-21" class="cls-14" d="M364,5.58a3.62,3.62,0,0,1,2.05.55,5.69,5.69,0,0,1,2,2.38L412.54,85.6a5.66,5.66,0,0,1,1.07,2.91,3.56,3.56,0,0,1-.55,2,5.64,5.64,0,0,1-2.37,2l-33.38,19.27a5.84,5.84,0,0,1-2.9,1.07,3.68,3.68,0,0,1-2.05-.55,5.76,5.76,0,0,1-2-2.38l-44.52-77.1a5.69,5.69,0,0,1-1.06-2.91,3.51,3.51,0,0,1,.55-2,5.64,5.64,0,0,1,2.37-2l5.76-3.33A4,4,0,0,0,338.89,24l15-8.66A4,4,0,0,0,355.34,10h0l5.76-3.32A5.64,5.64,0,0,1,364,5.58Z" transform="translate(1.93 8.31)"/></g><g class="cls-63"><g id="Group-65"><g id="Group-64"><rect id="Rectangle-22-2" data-name="Rectangle-22" class="cls-64" x="352.32" y="24.25" width="31.91" height="56.56" rx="1.65" transform="translate(25 199.49) rotate(-30)"/><g id="Group-60-7" data-name="Group-60"><path id="Path-32-20" data-name="Path-32" class="cls-65" d="M377.24,65l8.59-5" transform="translate(1.93 8.31)"/><path id="Path-32-21" data-name="Path-32" class="cls-66" d="M373.12,71.9l14.67-8.47" transform="translate(1.93 8.31)"/><path id="Path-32-22" data-name="Path-32" class="cls-66" d="M377.35,72.63l11.82-6.82" transform="translate(1.93 8.31)"/></g><path id="Triangle-3-6" data-name="Triangle-3" class="cls-1" d="M362,45.9a.56.56,0,0,1-.2-.77l2.6-4.44a.64.64,0,0,1,.2-.2.57.57,0,0,1,.77.21l2.54,4.4a.54.54,0,0,1,.08.28.56.56,0,0,1-.56.56l-5.15,0A.54.54,0,0,1,362,45.9Z" transform="translate(1.93 8.31)"/></g><rect id="Rectangle-22-Copy" class="cls-67" x="320.71" y="45.25" width="31.91" height="51.06" rx="1.65" transform="translate(11.65 186.13) rotate(-30)"/></g></g></g><path id="Path-8-3" data-name="Path-8" class="cls-68" d="M385.41,101.43,398.27,94" transform="translate(1.93 8.31)"/></g><g id="Group-46"><path id="Rectangle-22-3" data-name="Rectangle-22" class="cls-69" d="M181.34,168.54a5.9,5.9,0,0,1,.9,3.34c0,1.2-.3,2.26-1.75,4.76L111.85,295.53c-1.45,2.51-2.23,3.26-3.25,3.89a5.8,5.8,0,0,1-3.34.9c-1.2,0-2.26-.3-4.76-1.75L20.19,252.21c-2.5-1.45-3.26-2.23-3.89-3.25a5.9,5.9,0,0,1-.9-3.34c0-1.2.3-2.26,1.75-4.76L85.79,122c1.45-2.51,2.23-3.26,3.25-3.89a5.8,5.8,0,0,1,3.34-.9c1.2,0,2.26.3,4.76,1.75l80.31,46.36C180,166.74,180.71,167.52,181.34,168.54Z" transform="translate(1.93 8.31)"/><circle id="Oval-6" class="cls-2" cx="65.52" cy="278.09" r="3.24"/><g id="Group-63"><g id="Rectangle-22-4" data-name="Rectangle-22"><rect id="path-24-3" data-name="path-24" class="cls-70" x="33.58" y="158.26" width="132.84" height="98.01" transform="translate(-127.56 198.55) rotate(-60)"/></g><g class="cls-71"><g id="Group-65-2" data-name="Group-65"><g id="Group-64-2" data-name="Group-64"><rect id="Rectangle-22-5" data-name="Rectangle-22" class="cls-72" x="52.91" y="180.76" width="102.84" height="58.01" rx="3" transform="translate(-127.56 203.55) rotate(-60)"/><g id="Group-60-8" data-name="Group-60"><path id="Path-32-23" data-name="Path-32" class="cls-73" d="M92.86,235.21l15.63,9" transform="translate(1.93 8.31)"/><path id="Path-32-24" data-name="Path-32" class="cls-74" d="M78.26,235l26.67,15.4" transform="translate(1.93 8.31)"/><path id="Path-32-25" data-name="Path-32" class="cls-74" d="M81,242.33l21.48,12.4" transform="translate(1.93 8.31)"/></g><path id="Triangle-3-7" data-name="Triangle-3" class="cls-1" d="M109.07,193.83a1,1,0,0,1,1-1l9.35.07a1,1,0,0,1,.88,1.53l-4.62,8a1,1,0,0,1-1.76,0l-4.74-8.07A1.08,1.08,0,0,1,109.07,193.83Z" transform="translate(1.93 8.31)"/></g><rect id="Rectangle-22-Copy-2" data-name="Rectangle-22-Copy" class="cls-75" x="-1.12" y="146.67" width="92.84" height="58.01" rx="3" transform="translate(-127.56 135.38) rotate(-60)"/></g></g></g></g><g id="Group-52"><g id="Path-9-2" data-name="Path-9"><path id="path-26-6" data-name="path-26" class="cls-76" d="M65.64,492.65Q29.82,395,24.75,366.78c-8.33-46.28,13.17-51.2,25.54-42.14Q83,348.58,85.43,495.57Z" transform="translate(1.93 8.31)"/></g><g class="cls-77"><path id="Path-19" class="cls-78" d="M70.24,499.79Q63.1,388,31.93,318.27" transform="translate(1.93 8.31)"/></g><g class="cls-79"><path id="Path-20" class="cls-78" d="M75.45,497.3q0-127.86-26.26-177.09" transform="translate(1.93 8.31)"/></g><g class="cls-80"><path id="Path-21-3" data-name="Path-21" class="cls-78" d="M63.34,495.52q-5.37-77.46-43-163.11" transform="translate(1.93 8.31)"/></g><g class="cls-81"><path id="Path-27" class="cls-16" d="M59.76,493.67,35.29,405.08q33.3,5.76,30.18,88.59Z" transform="translate(1.93 8.31)"/></g></g></g><g id="Group-51"><g id="Path-10-2" data-name="Path-10"><path id="path-28-9" data-name="path-28" class="cls-14" d="M45.21,488.09C39,486.15-3.4,475.07,3,459.78q6.4-15.28,39.29,12.81-28.91-50.68-8.44-55t31.51,74.6Q51.57,490.09,45.21,488.09Z" transform="translate(1.93 8.31)"/></g><g class="cls-82"><path id="Path-13" class="cls-83" d="M55.94,492.87q-6.06-42-24.55-76.11" transform="translate(1.93 8.31)"/></g><g class="cls-84"><path id="Path-14" class="cls-83" d="M56,491Q21.12,475.45,3,456" transform="translate(1.93 8.31)"/></g><g class="cls-84"><polyline id="Path-15" class="cls-83" points="26.2 441.01 44.16 448.35 52.59 433.68"/></g><g class="cls-84"><polyline id="Path-16" class="cls-83" points="32.26 462.1 50.57 467.47 59.61 454.21"/></g><g class="cls-84"><polyline id="Path-17" class="cls-83" points="6.37 481.17 20.09 477.81 21.29 462.74"/></g><g class="cls-84"><polyline id="Path-18-4" data-name="Path-18" class="cls-83" points="21.95 489.44 32.41 486.01 33.28 469.38"/></g></g></g></g></g></g></svg>